<?xml version="1.0" encoding="UTF-8" standalone="no"?>
<svg
   xmlns:dc="http://purl.org/dc/elements/1.1/"
   xmlns:cc="http://creativecommons.org/ns#"
   xmlns:rdf="http://www.w3.org/1999/02/22-rdf-syntax-ns#"
   xmlns:svg="http://www.w3.org/2000/svg"
   xmlns="http://www.w3.org/2000/svg"
   viewBox="0 0 257.33334 257.33334"
   height="257.33334"
   width="257.33334"
   xml:space="preserve"
   id="svg2"
   version="1.1"><metadata
     id="metadata8"><rdf:RDF><cc:Work
         rdf:about=""><dc:format>image/svg+xml</dc:format><dc:type
           rdf:resource="http://purl.org/dc/dcmitype/StillImage" /></cc:Work></rdf:RDF></metadata><defs
     id="defs6" /><g
     transform="matrix(1.3333333,0,0,-1.3333333,0,257.33333)"
     id="g10"><g
       transform="scale(0.1)"
       id="g12"><path
         id="path14"
         style="fill:#ffffff;fill-opacity:1;fill-rule:evenodd;stroke:none"
         d="M 0,0 H 1927.56 V 1927.56 H 0 Z" /><path
         id="path16"
         style="fill:#2350a9;fill-opacity:1;fill-rule:evenodd;stroke:none"
         d="M 85.0391,358.301 144.988,683.375 H 265.121 L 223.359,458.422 h 99.973 L 304.684,358.301 Z M 450.512,503.293 c -8.719,0 -16.149,-3.566 -22.207,-10.766 -6.063,-7.203 -9.094,-15.996 -9.094,-26.527 0,-7.73 2.191,-13.867 6.519,-18.414 4.391,-4.629 10.231,-6.902 17.504,-6.902 9.325,0 16.903,3.414 22.743,10.308 5.832,6.899 8.789,15.918 8.789,26.985 0,7.878 -2.125,14.023 -6.442,18.57 -4.32,4.469 -10.234,6.746 -17.812,6.746 z m -132.336,-46.84 c 0,18.797 3.183,36.375 9.629,52.746 6.437,16.371 15.84,30.696 28.117,43.207 13.641,13.867 29.105,24.399 46.383,31.606 17.363,7.203 35.855,10.761 55.558,10.761 35.547,0 63.891,-9.929 85.043,-29.867 21.145,-19.929 31.754,-46.535 31.754,-79.808 0,-15.535 -2.652,-30.547 -7.879,-45.094 -5.23,-14.473 -12.886,-27.816 -22.965,-39.949 -13.347,-16.137 -29.566,-28.571 -48.738,-37.282 -19.18,-8.718 -39.793,-13.117 -61.844,-13.117 -33.5,0 -61.015,10.082 -82.621,30.168 -21.597,20.16 -32.437,45.707 -32.437,76.629 z m 269.75,-98.152 26.902,146.961 h -28.644 l 15.535,82.617 h 28.652 l 11.746,64.195 h 108.156 l -11.75,-64.195 h 33.27 L 756.258,505.262 H 722.992 L 695.855,358.301 Z M 859.34,502.453 h 55.101 v 3.34 c 0,7.199 -1.968,12.957 -5.91,17.203 -3.871,4.172 -9.168,6.293 -15.84,6.293 -8.336,0 -15.082,-2.121 -20.464,-6.445 -5.309,-4.246 -9.625,-11.067 -12.887,-20.391 z m 146.58,-42.668 H 853.582 c 0,-11.519 2.422,-20.461 7.348,-26.832 4.851,-6.363 11.672,-9.551 20.386,-9.551 6.219,0 11.75,1.52 16.606,4.551 4.773,3.031 10,8.332 15.609,15.836 l 81.481,-17.277 c -13.492,-25.465 -30.774,-44.641 -51.996,-57.524 -21.145,-12.886 -46.008,-19.332 -74.582,-19.332 -33.426,0 -60.86,10.008 -82.157,30.09 -21.297,20.09 -31.988,45.785 -31.988,77.16 0,18.496 3.188,35.996 9.551,52.367 6.363,16.454 15.465,30.852 27.289,43.133 13.336,13.719 28.797,24.324 46.309,31.754 17.582,7.356 36.074,11.07 55.628,11.07 33.504,0 60.938,-9.707 82.387,-29.105 21.453,-19.41 32.217,-43.965 32.217,-73.672 0,-5.687 -0.16,-11.144 -0.46,-16.449 -0.3,-5.301 -0.75,-10.762 -1.29,-16.219 z m -6.518,-101.484 42.898,229.578 h 98.99 l -7.73,-31.305 c 7.8,13.035 16.9,22.739 27.28,29.106 10.31,6.363 22.21,9.55 35.47,9.55 3.26,0 7.05,-0.304 11.22,-0.914 4.25,-0.609 9.33,-1.437 15.24,-2.652 l -17.29,-93.754 c -7.57,2.578 -14.39,4.469 -20.46,5.836 -6.06,1.285 -11.52,1.969 -16.45,1.969 -12.58,0 -21.98,-3.18 -28.19,-9.625 -6.22,-6.438 -10.84,-18.27 -13.94,-35.469 l -18.65,-102.32 z M 1300.9,599.625 c -16.14,0 -29.63,5 -40.54,15.004 -10.84,10.008 -16.3,22.285 -16.3,36.91 0,15.766 6.44,29.336 19.33,40.93 12.88,11.519 28.27,17.281 46.16,17.281 16.29,0 29.86,-4.93 40.62,-14.781 10.84,-9.856 16.22,-22.133 16.22,-36.985 0,-15.839 -6.44,-29.488 -19.32,-41.082 -12.89,-11.519 -28.28,-17.277 -46.17,-17.277 z m -102.54,-241.324 42.14,229.578 h 108.39 L 1306.44,358.301 Z M 1486.6,502 c -8.71,0 -15.84,-3.41 -21.53,-10.305 -5.61,-6.898 -8.41,-15.765 -8.41,-26.527 0,-8.336 2.05,-14.707 6.14,-19.102 4.02,-4.472 9.86,-6.668 17.43,-6.668 9.4,0 17.13,3.262 23.04,9.852 5.92,6.594 8.87,15.086 8.87,25.469 0,8.41 -2.27,15.078 -6.97,19.933 -4.62,4.922 -10.84,7.348 -18.57,7.348 z m 46.46,85.879 h 105.43 l -42.6,-229.578 h -101.94 l 8.19,30.844 c -9.55,-13.11 -20.09,-22.961 -31.38,-29.407 -11.37,-6.437 -23.96,-9.625 -37.9,-9.625 -24.55,0 -44.79,9.477 -60.71,28.426 -15.92,18.941 -23.87,43.422 -23.87,73.52 0,17.281 2.8,34.332 8.34,51.16 5.53,16.746 13.41,31.976 23.64,45.621 11.37,15.238 24.18,26.758 38.28,34.637 14.17,7.812 29.33,11.753 45.4,11.753 14.55,0 27.13,-3.335 37.82,-10.007 10.61,-6.668 19.71,-16.828 27.28,-30.395 z m 80.72,-199.566 40.62,67.683 c 11.14,-10.918 22.05,-19.402 32.89,-25.391 10.84,-5.988 20.47,-9.015 28.96,-9.015 3.56,0 6.44,0.902 8.79,2.648 2.27,1.817 3.41,4.098 3.41,6.899 0,4.32 -5.15,9.168 -15.54,14.625 -0.75,0.304 -1.28,0.531 -1.59,0.683 l -17.36,9.098 c -13.64,7.273 -23.72,15.687 -30.23,25.238 -6.53,9.555 -9.78,20.692 -9.78,33.426 0,23.645 9.17,43.051 27.43,58.281 18.27,15.157 41.84,22.742 70.71,22.742 15.17,0 30.1,-2.277 44.88,-6.746 14.85,-4.55 30.01,-11.519 45.55,-20.996 l -36.61,-61.773 c -7.73,7.277 -15.16,12.883 -22.28,16.754 -7.13,3.941 -13.72,5.906 -19.78,5.906 -3.72,0 -6.75,-0.984 -9.1,-2.879 -2.35,-1.973 -3.56,-4.316 -3.56,-7.125 0,-3.558 4.4,-7.351 13.11,-11.293 2.5,-1.215 4.47,-2.121 5.76,-2.73 l 13.8,-6.364 c 14.1,-6.363 24.48,-14.476 31.15,-24.328 6.66,-9.855 10,-22.133 10,-36.761 0,-26.223 -9.47,-47.293 -28.42,-63.29 -18.95,-15.988 -44.04,-23.949 -75.34,-23.949 -16.52,0 -33.8,3.188 -51.69,9.625 -17.96,6.449 -36.53,16.145 -55.78,29.032" /><path
         id="path18"
         style="fill:#f47216;fill-opacity:1;fill-rule:evenodd;stroke:none"
         d="m 827.625,772.828 c 65.672,0 119.23,53.555 119.238,119.227 0,0.004 0,0.004 0,0.008 V 1158.36 H 668.801 v -0.02 c -64.977,-0.82 -117.707,-54.05 -117.707,-119.21 0,-65.681 53.558,-119.243 119.234,-119.243 15.399,0 30.145,2.929 43.68,8.285 -3.637,-11.399 -5.625,-23.527 -5.625,-36.109 0,-65.676 53.562,-119.235 119.242,-119.235 z M 1099.94,1577.9 c -65.67,0 -119.233,-53.56 -119.241,-119.23 0,0 0,0 0,-0.01 v -266.3 h 278.071 v 0.02 c 64.97,0.83 117.7,54.06 117.7,119.22 0,65.67 -53.56,119.24 -119.24,119.24 -15.39,0 -30.14,-2.93 -43.68,-8.29 3.64,11.4 5.63,23.53 5.63,36.11 0,65.68 -53.56,119.24 -119.24,119.24" /><path
         id="path20"
         style="fill:#2350a9;fill-opacity:1;fill-rule:evenodd;stroke:none"
         d="m 827.625,1577.9 c 65.672,0 119.23,-53.56 119.238,-119.23 0,0 0,0 0,-0.01 v -266.3 H 668.801 v 0.02 c -64.977,0.83 -117.707,54.06 -117.707,119.22 0,65.67 53.558,119.24 119.234,119.24 15.399,0 30.145,-2.93 43.68,-8.29 -3.637,11.4 -5.625,23.53 -5.625,36.11 0,65.68 53.562,119.24 119.242,119.24 z M 1099.94,772.828 c -65.67,0 -119.233,53.555 -119.241,119.227 0,0.004 0,0.004 0,0.008 v 266.297 h 278.071 v -0.02 c 64.97,-0.82 117.7,-54.05 117.7,-119.21 0,-65.681 -53.56,-119.243 -119.24,-119.243 -15.39,0 -30.14,2.929 -43.68,8.285 3.64,-11.399 5.63,-23.527 5.63,-36.109 0,-65.676 -53.56,-119.235 -119.24,-119.235" /></g></g></svg>